
        <svg xmlns="http://www.w3.org/2000/svg" xmlns:xlink="http://www.w3.org/1999/xlink" version="1.1" width="3192" 
        height="2225.5916791364443" viewBox="0 0 3192 2225.5916791364443">
			<rect fill="#323232" width="3192" height="2225.5916791364443"/>
			<g transform="scale(9.6) translate(10, 10)">
				<defs id="SvgjsDefs1494"></defs><g id="SvgjsG1495" featureKey="rootContainer" transform="matrix(2.6916451688813487,0,0,2.6916451688813487,0,0)" fill="#ffffff"><path xmlns="http://www.w3.org/2000/svg" d="M116.1 78.7H0V0h116.1zM2 76.7h112.1V2H2z"></path></g><g id="SvgjsG1496" featureKey="symbolFeature-0" transform="matrix(0.9863013698630136,0,0,0.9863013698630136,106.68493150684932,34.68493150684932)" fill="#ffffff"><metadata xmlns="http://www.w3.org/2000/svg"><!--?xpacket begin="&;" id="W5M0MpCehiHzreSzNTczkc9d"?--><x:xmpmeta xmlns:x="adobe:ns:meta/" x:xmptk="Adobe XMP Core 5.5-c014 79.151739, 2013/04/03-12:12:15        "></x:xmpmeta><!--?xpacket end="w"?--></metadata><path xmlns="http://www.w3.org/2000/svg" d="M51,83.4629517V86.5h20.5039063c0.0067139-0.9648438,0.0252075-1.9748535,0.0495605-3.0050659  C64.1516113,83.4557495,54.0393066,83.4234009,51,83.4629517z"></path><path xmlns="http://www.w3.org/2000/svg" d="M24.7021484,55.2211914c-0.3886719-4.5200195-0.6884766-7.5356445-0.6972656-7.621582  c-0.0517578-0.5219727,0.3076172-0.9956055,0.8251953-1.0849609c0.5166016-0.0859375,1.015625,0.2358398,1.140625,0.7456055  c0.4960938,2.0083008,0.7089844,4.7416992,0.7285156,7.8476563c0.598877,6.9736328,1.4041138,17.4772949,1.6914063,26.387146  C41.5667114,81.4224243,46.8225708,81.3981934,49,81.4783936V33.2784424  c-1.9395752-0.4952393-4.6722412-1.2252808-7.6589355-2.0357666l1.9653931,7.8614502  C44.8473511,39.4700928,46,40.8496094,46,42.5009766C46,44.4301758,44.4306641,46,42.5009766,46  s-3.4990234-1.5698242-3.4990234-3.4990234c0-1.4979248,0.9503174-2.7686768,2.276123-3.2669678l-2.1482544-8.5932617  c-7.1367188-1.9484863-14.9118042-4.1213989-16.5706787-4.5858154C21.0070801,26.7089233,13.5,30.3693848,13.5,40v41.5h8.8970947  C23.3522949,74.7562866,24.7350464,63.5244751,24.7021484,55.2211914z M32.5,71.5H45c0.5527344,0,1,0.4477539,1,1s-0.4472656,1-1,1  H32.5c-0.5527344,0-1-0.4477539-1-1S31.9472656,71.5,32.5,71.5z"></path><path xmlns="http://www.w3.org/2000/svg" d="M22.1074829,83.5H13.5v3h8.1484375C21.7536011,85.8391724,21.9145508,84.8048706,22.1074829,83.5z"></path><path xmlns="http://www.w3.org/2000/svg" d="M41.7929688,25.7070313c-1.1943359-1.1933594-3.5888672-3.5864258-2.6308594-5.8984375  C40.0615234,17.6362305,43.5048828,16.6245117,50,16.6245117s9.9384766,1.0117188,10.8378906,3.184082  c0.9580078,2.3120117-1.4365234,4.7050781-2.5878906,5.8554688l-4.946228,4.946228  c6.7984009-1.8012695,17.7982788-4.8616943,22.1112671-6.0658569c-3.2724609-2.8203125-5.3378906-4.9384766-6.8974609-6.5380859  C64.1240234,13.5,64.1240234,13.5,50,13.5s-14.1240234,0-18.5175781,4.5063477  c-1.5595703,1.5996094-3.625,3.7177734-6.8974609,6.5380859c4.3129883,1.2041626,15.3128662,4.2645874,22.1112671,6.0658569  L41.7929688,25.7070313z"></path><circle xmlns="http://www.w3.org/2000/svg" cx="42.5009766" cy="42.5007324" r="1.4992676"></circle><path xmlns="http://www.w3.org/2000/svg" d="M58.9902344,20.5737305C58.8007813,20.1162109,57.5927734,18.6245117,50,18.6245117  s-8.8007813,1.4916992-8.9902344,1.9492188c-0.4462891,1.0771484,1.4423828,2.9648438,2.1542969,3.6757813L50,31.0859375  l6.7929688-6.7929688C57.5478516,23.5385742,59.4365234,21.6508789,58.9902344,20.5737305z"></path><path xmlns="http://www.w3.org/2000/svg" d="M49,83.4629517c-3.0389404-0.0395508-13.1519165-0.0072021-20.5534668,0.0319824  c0.024353,1.0302124,0.0428467,2.0402222,0.0495605,3.0050659H49V83.4629517z"></path><circle xmlns="http://www.w3.org/2000/svg" cx="57.4990234" cy="42.5009766" r="1.4990234"></circle><path xmlns="http://www.w3.org/2000/svg" d="M77.440979,26.0549316c-1.6588135,0.4643555-9.43396,2.6373291-16.5708008,4.5858154l-2.1482544,8.5932617  c1.3258057,0.49823,2.276123,1.7689819,2.276123,3.2669678C60.9980469,44.4301758,59.4287109,46,57.4990234,46  S54,44.4301758,54,42.5009766c0-1.6513672,1.1526489-3.0308228,2.6935425-3.3968506l1.9653931-7.8614502  C55.6722412,32.0531616,52.9395752,32.7832031,51,33.2784424v48.1998291  c2.1773071-0.0803833,7.4332886-0.0564575,20.609375,0.0167847c0.2872925-8.9098511,1.0925293-19.4135132,1.6914063-26.387146  c0.0195313-3.105957,0.2324219-5.8393555,0.7285156-7.8476563c0.125-0.5092773,0.6230469-0.8310547,1.140625-0.7456055  c0.5175781,0.0893555,0.8769531,0.5629883,0.8251953,1.0849609c-0.0087891,0.0859375-0.3085938,3.1020508-0.6972656,7.6220703  C75.2649536,63.5249634,76.6477051,74.7564087,77.6029053,81.5H86.5V40C86.5,30.3693237,78.993103,26.7090454,77.440979,26.0549316z   M67.5,73.5H55c-0.5527344,0-1-0.4477539-1-1s0.4472656-1,1-1h12.5c0.5527344,0,1,0.4477539,1,1S68.0527344,73.5,67.5,73.5z"></path><path xmlns="http://www.w3.org/2000/svg" d="M78.3515625,86.5H86.5v-3h-8.6074829C78.0854492,84.8048706,78.2463989,85.8391724,78.3515625,86.5z"></path></g><g id="SvgjsG1497" featureKey="nameFeature-0" transform="matrix(0.6349408114562172,0,0,0.6349408114562172,55.03488997869709,132.7362779888994)" fill="#ffffff"><path d="M12.08 18.76 c2.8 0 5.08 0.71328 6.84 2.14 s2.72 3.3267 2.88 5.7 l-5.56 0 c-0.37332 -2.3733 -1.7733 -3.56 -4.2 -3.56 c-1.4933 0 -2.6733 0.61332 -3.54 1.84 s-1.3 2.8534 -1.3 4.88 c0 1.9467 0.41332 3.52 1.24 4.72 s1.9867 1.8 3.48 1.8 c2.5867 0 4.0932 -1.4 4.52 -4.2 l5.48 0 c-0.37332 2.7467 -1.4333 4.8468 -3.18 6.3 s-4.0068 2.18 -6.78 2.18 c-3.0667 0 -5.5732 -0.98 -7.52 -2.94 s-2.92 -4.5132 -2.92 -7.66 c0 -3.4133 0.96 -6.1332 2.88 -8.16 s4.48 -3.04 7.68 -3.04 z M31.866 11.440000000000001 l0 28.56 l-5.68 0 l0 -28.56 l5.68 0 z M47.292 18.76 c3.3067 0 5.92 1.0067 7.84 3.02 s2.88 4.6468 2.88 7.9 c0 3.28 -0.98 5.9132 -2.94 7.9 s-4.5532 2.98 -7.78 2.98 c-3.28 0 -5.88 -1.0067 -7.8 -3.02 s-2.88 -4.6332 -2.88 -7.86 c0 -3.3333 0.98 -5.9868 2.94 -7.96 s4.54 -2.96 7.74 -2.96 z M42.292 29.68 c0 2.1067 0.42668 3.7333 1.28 4.88 s2.0933 1.72 3.72 1.72 c1.68 0 2.94 -0.58668 3.78 -1.76 s1.26 -2.7866 1.26 -4.84 c0 -2.1333 -0.43332 -3.7733 -1.3 -4.92 s-2.1267 -1.72 -3.78 -1.72 c-1.6 0 -2.8267 0.57332 -3.68 1.72 s-1.28 2.7867 -1.28 4.92 z M69.798 13.120000000000001 l0.000039062 6.2 l4.16 0 l0 3.8 l-4.16 0 l0 10.24 c0 0.96 0.16 1.6 0.48 1.92 s0.96 0.48 1.92 0.48 c0.69332 0 1.28 -0.05332 1.76 -0.16 l0 4.44 c-0.8 0.13332 -1.92 0.2 -3.36 0.2 c-2.1867 0 -3.8134 -0.37332 -4.88 -1.12 s-1.6 -2.04 -1.6 -3.88 l0 -12.12 l-3.44 0 l0 -3.8 l3.44 0 l0 -6.2 l5.68 0 z M83.26400000000001 11.440000000000001 l0 10.76 l0.12 0 c0.64 -1.0667 1.5067 -1.9067 2.6 -2.52 s2.2533 -0.92 3.48 -0.92 c2.64 0 4.5532 0.66668 5.74 2 s1.78 3.44 1.78 6.32 l0 12.92 l-5.68 0 l0 -11.76 c0 -1.68 -0.27332 -2.9333 -0.82 -3.76 s-1.4867 -1.24 -2.82 -1.24 c-1.52 0 -2.6333 0.46 -3.34 1.38 s-1.06 2.4333 -1.06 4.54 l0 10.84 l-5.68 0 l0 -28.56 l5.68 0 z M108.05000000000001 11.440000000000001 l0 4.68 l-5.68 0 l0 -4.68 l5.68 0 z M108.05000000000001 19.32 l0 20.68 l-5.68 0 l0 -20.68 l5.68 0 z M125.316 18.76 c2.64 0 4.5532 0.66676 5.74 2.0001 s1.78 3.4533 1.78 6.36 l0 12.88 l-5.68 0 l0 -11.72 c0 -1.7067 -0.27332 -2.9734 -0.82 -3.8 s-1.4867 -1.24 -2.82 -1.24 c-1.5467 0 -2.6667 0.46668 -3.36 1.4 s-1.04 2.4666 -1.04 4.6 l0 10.76 l-5.68 0 l0 -20.68 l5.4 0 l0 2.88 l0.12 0 c1.4133 -2.2933 3.5333 -3.44 6.36 -3.44 z M146.30200000000002 18.76 c2.8533 0 4.9068 1.1066 6.16 3.32 l0.08 0 l0 -2.76 l5.4 0 l0 19.4 c0 2.9867 -0.92668 5.2532 -2.78 6.8 s-4.4868 2.32 -7.9 2.32 c-2.6133 0 -4.7668 -0.62668 -6.46 -1.88 s-2.5933 -2.84 -2.7 -4.76 l5.64 0 c0.45332 1.8933 1.8666 2.84 4.24 2.84 c1.4667 0 2.5934 -0.43332 3.38 -1.3 s1.18 -2.1 1.18 -3.7 l0 -2.84 l-0.08 0 c-0.56 1.0133 -1.38 1.8 -2.46 2.36 s-2.3267 0.84 -3.74 0.84 c-2.7733 0 -4.94 -0.90668 -6.5 -2.72 s-2.34 -4.3732 -2.34 -7.68 c0 -2.9333 0.82 -5.3732 2.46 -7.32 s3.78 -2.92 6.42 -2.92 z M143.102 28.92 c0 1.9467 0.40672 3.4666 1.22 4.56 s1.94 1.64 3.38 1.64 c1.4667 0 2.64 -0.52668 3.52 -1.58 s1.32 -2.4466 1.32 -4.18 c0 -2.08 -0.42 -3.6533 -1.26 -4.72 s-2.0467 -1.6 -3.62 -1.6 c-1.4667 0 -2.5934 0.55332 -3.38 1.66 s-1.18 2.5134 -1.18 4.22 z M183.59400000000002 11.440000000000001 c0.48 0 1.48 0.05336 3 0.16004 l0 4.24 c-0.74668 -0.08 -1.4267 -0.12 -2.04 -0.12 c-0.82668 0 -1.4 0.18 -1.72 0.54 s-0.48 0.98 -0.48 1.86 l0 1.2 l3.92 0 l0 3.8 l-3.92 0 l0 16.88 l-5.68 0 l0 -16.88 l-3.4 0 l0 -3.8 l3.4 0 l0 -1.52 c0 -2.0267 0.60668 -3.5934 1.82 -4.7 s2.9133 -1.66 5.1 -1.66 z M199.18000000000004 18.76 c6.0268 0.02668 9.04 1.9866 9.04 5.88 l0 10.96 c0 2.0267 0.24 3.4934 0.72 4.4 l-5.76 0 c-0.21332 -0.64 -0.34664 -1.3067 -0.39996 -2 c-1.68 1.7067 -4 2.56 -6.96 2.56 c-2.16 0 -3.8733 -0.54668 -5.14 -1.64 s-1.9 -2.6133 -1.9 -4.56 c0 -1.8933 0.6 -3.36 1.8 -4.4 c1.2267 -1.0933 3.4534 -1.7866 6.68 -2.08 c2.2933 -0.24 3.7466 -0.54 4.36 -0.9 s0.92 -0.91332 0.92 -1.66 c0 -0.93332 -0.28 -1.6266 -0.84 -2.08 s-1.4933 -0.68 -2.8 -0.68 c-1.2 0 -2.1067 0.24668 -2.72 0.74 s-0.97332 1.2866 -1.08 2.38 l-5.68 0 c0.13332 -2.2667 1.0666 -3.9867 2.8 -5.16 s4.0532 -1.76 6.96 -1.76 z M194.46000000000004 34.12 c0 1.76 1.16 2.64 3.48 2.64 c3.04 -0.02668 4.5732 -1.5867 4.6 -4.68 l0 -2.2 c-0.45332 0.45332 -1.6 0.78664 -3.44 0.99996 c-1.6 0.18668 -2.7733 0.51336 -3.52 0.98004 s-1.12 1.22 -1.12 2.26 z M222.00600000000003 18.76 c2.7733 0 4.94 0.56004 6.5 1.68 s2.4333 2.76 2.62 4.92 l-5.4 0 c-0.08 -0.98668 -0.44 -1.7 -1.08 -2.14 s-1.5733 -0.66 -2.8 -0.66 c-1.0667 0 -1.86 0.16 -2.38 0.48 s-0.78 0.8 -0.78 1.44 c0 0.48 0.17332 0.88 0.52 1.2 s0.87336 0.6 1.58 0.84 s1.4867 0.44 2.34 0.6 c2.5867 0.50668 4.4132 1.0267 5.48 1.56 s1.8467 1.1733 2.34 1.92 s0.74 1.6667 0.74 2.76 c0 2.32 -0.84668 4.1 -2.54 5.34 s-3.9933 1.86 -6.9 1.86 c-3.04 0 -5.4068 -0.65332 -7.1 -1.96 s-2.5666 -3.08 -2.62 -5.32 l5.4 0 c0 1.0667 0.41332 1.9134 1.24 2.54 s1.8667 0.94 3.12 0.94 c1.0667 0 1.9534 -0.23332 2.66 -0.7 s1.06 -1.1134 1.06 -1.94 c0 -0.53332 -0.22 -0.97332 -0.66 -1.32 s-1.06 -0.65336 -1.86 -0.92004 s-2.04 -0.57336 -3.72 -0.92004 c-1.3333 -0.26668 -2.52 -0.62668 -3.56 -1.08 s-1.8333 -1.0466 -2.38 -1.78 s-0.82 -1.6333 -0.82 -2.7 c0 -1.36 0.32668 -2.5467 0.98 -3.56 s1.6533 -1.78 3 -2.3 s3.02 -0.78 5.02 -0.78 z M241.59200000000004 11.440000000000001 l0 10.76 l0.12 0 c0.64 -1.0667 1.5067 -1.9067 2.6 -2.52 s2.2533 -0.92 3.48 -0.92 c2.64 0 4.5532 0.66668 5.74 2 s1.78 3.44 1.78 6.32 l0 12.92 l-5.68 0 l0 -11.76 c0 -1.68 -0.27332 -2.9333 -0.82 -3.76 s-1.4867 -1.24 -2.82 -1.24 c-1.52 0 -2.6333 0.46 -3.34 1.38 s-1.06 2.4333 -1.06 4.54 l0 10.84 l-5.68 0 l0 -28.56 l5.68 0 z M266.37800000000004 11.440000000000001 l0 4.68 l-5.68 0 l0 -4.68 l5.68 0 z M266.37800000000004 19.32 l0 20.68 l-5.68 0 l0 -20.68 l5.68 0 z M281.80400000000003 18.76 c3.3067 0 5.92 1.0067 7.84 3.02 s2.88 4.6468 2.88 7.9 c0 3.28 -0.98 5.9132 -2.94 7.9 s-4.5532 2.98 -7.78 2.98 c-3.28 0 -5.88 -1.0067 -7.8 -3.02 s-2.88 -4.6332 -2.88 -7.86 c0 -3.3333 0.98 -5.9868 2.94 -7.96 s4.54 -2.96 7.74 -2.96 z M276.80400000000003 29.68 c0 2.1067 0.42668 3.7333 1.28 4.88 s2.0933 1.72 3.72 1.72 c1.68 0 2.94 -0.58668 3.78 -1.76 s1.26 -2.7866 1.26 -4.84 c0 -2.1333 -0.43332 -3.7733 -1.3 -4.92 s-2.1267 -1.72 -3.78 -1.72 c-1.6 0 -2.8267 0.57332 -3.68 1.72 s-1.28 2.7867 -1.28 4.92 z M308.99000000000007 18.76 c2.64 0 4.5532 0.66676 5.74 2.0001 s1.78 3.4533 1.78 6.36 l0 12.88 l-5.68 0 l0 -11.72 c0 -1.7067 -0.27332 -2.9734 -0.82 -3.8 s-1.4867 -1.24 -2.82 -1.24 c-1.5467 0 -2.6667 0.46668 -3.36 1.4 s-1.04 2.4666 -1.04 4.6 l0 10.76 l-5.68 0 l0 -20.68 l5.4 0 l0 2.88 l0.12 0 c1.4133 -2.2933 3.5333 -3.44 6.36 -3.44 z"></path></g>
			</g>
		</svg>
	